<svg width="14" height="14" viewBox="0 0 14 14" fill="none" xmlns="http://www.w3.org/2000/svg">
<g clip-path="url(#clip0_73_154)">
<path d="M13.175 0H0.814697L1.97349 12.5631L6.99464 13.9864H6.99479H6.99494L12.0162 12.5631L13.175 0Z" fill="#E44E26"/>
<path d="M6.99487 1.02338V12.9225H6.99502L11.0617 11.7699L12.0529 1.02338H6.99487Z" fill="#F16529"/>
<path d="M10.8827 2.5639H3.10693L3.54097 7.26985L3.55016 7.2393H8.8644L8.68948 9.22944L6.99621 9.71859L5.27476 9.22237L5.17074 8.01813H3.60995L3.83193 10.4251L6.99482 11.3217L10.1578 10.4251L10.5933 5.70126H4.95625L4.81102 4.12665H10.7387L10.8827 2.5639Z" fill="white"/>
<path d="M5.17074 8.01813H3.60995L3.83193 10.4251L6.99467 11.3216V9.71812L5.27476 9.22237L5.17074 8.01813ZM6.99467 2.5639H3.10693L3.54097 7.26985L3.55016 7.2393H6.99467V5.70126H4.95625L4.81102 4.12665H6.99467V2.5639Z" fill="#EBEBEC"/>
</g>
<defs>
<clipPath id="clip0_73_154">
<rect width="14" height="14" fill="white"/>
</clipPath>
</defs>
</svg>
