<svg width="14" height="14" viewBox="0 0 14 14" fill="none" xmlns="http://www.w3.org/2000/svg">
<g clip-path="url(#clip0_73_152)">
<path d="M0 0H14V14H0V0Z" fill="#F7DF1E"/>
<path d="M3.68117 11.6994L4.75255 11.0511C4.95924 11.4175 5.14726 11.7276 5.59826 11.7276C6.03057 11.7276 6.30313 11.5585 6.30313 10.9007V6.42737H7.61877V10.9193C7.61877 12.282 6.82002 12.9022 5.65466 12.9022C4.6022 12.9022 3.99126 12.3571 3.68115 11.6993" fill="black"/>
<path d="M8.33325 11.5584L9.4045 10.9382C9.6865 11.3987 10.053 11.737 10.7014 11.737C11.2465 11.737 11.5942 11.4644 11.5942 11.0885C11.5942 10.6374 11.2371 10.4777 10.6356 10.2146L10.3068 10.0736C9.35756 9.66953 8.7279 9.16207 8.7279 8.09071C8.7279 7.10396 9.4797 6.35211 10.6545 6.35211C11.4909 6.35211 12.0923 6.64347 12.5245 7.40469L11.5002 8.06249C11.2746 7.65842 11.0304 7.49869 10.6545 7.49869C10.2692 7.49869 10.0248 7.74302 10.0248 8.06249C10.0248 8.4572 10.2692 8.617 10.833 8.86136L11.1619 9.00231C12.2802 9.48162 12.9099 9.97024 12.9099 11.0697C12.9099 12.2539 11.9795 12.9023 10.7296 12.9023C9.50794 12.9023 8.7185 12.3197 8.33325 11.5584Z" fill="black"/>
</g>
<defs>
<clipPath id="clip0_73_152">
<rect width="14" height="14" fill="white"/>
</clipPath>
</defs>
</svg>
