<svg width="14" height="14" viewBox="0 0 14 14" fill="none" xmlns="http://www.w3.org/2000/svg">
<g clip-path="url(#clip0_73_151)">
<path d="M0.0412598 6.98635C0.0412598 8.03714 1.06733 9.01809 2.68502 9.571C2.36198 11.1973 2.62713 12.5081 3.51274 13.0188C4.42305 13.5438 5.77919 13.1804 7.06635 12.0553C8.32104 13.135 9.58913 13.5599 10.4739 13.0477C11.3833 12.5212 11.66 11.1215 11.328 9.44449C13.0129 8.88742 13.9554 8.05097 13.9554 6.98635C13.9554 5.95993 12.9274 5.07193 11.3315 4.52255C11.6889 2.7762 11.3861 1.49724 10.4638 0.96539C9.57468 0.452658 8.29187 0.899556 7.01873 2.00754C5.69424 0.831503 4.42409 0.472443 3.50272 1.00584C2.61442 1.52003 2.36094 2.85462 2.68502 4.51101C1.12196 5.05598 0.0412598 5.96403 0.0412598 6.98635Z" fill="white"/>
<path d="M10.9934 5.06813C10.8652 5.02401 10.7324 4.98226 10.5956 4.94278C10.6181 4.85104 10.6388 4.76048 10.6571 4.67147C10.9582 3.20982 10.7613 2.0323 10.089 1.64461C9.44441 1.27287 8.39015 1.66047 7.3254 2.58708C7.22302 2.67619 7.12034 2.77053 7.01771 2.86939C6.94933 2.80398 6.88106 2.74077 6.81296 2.6803C5.69707 1.6895 4.57857 1.27196 3.90694 1.66078C3.26292 2.0336 3.0722 3.14057 3.34325 4.52579C3.36942 4.65959 3.40002 4.79623 3.43461 4.93515C3.27631 4.98008 3.12349 5.02799 2.97727 5.07895C1.66901 5.53507 0.833496 6.24992 0.833496 6.9914C0.833496 7.75721 1.73042 8.52533 3.09307 8.99108C3.20061 9.02783 3.31219 9.06258 3.42718 9.09558C3.38985 9.24583 3.35739 9.39306 3.33014 9.53667C3.07169 10.8978 3.27352 11.9787 3.91583 12.3491C4.57927 12.7317 5.69272 12.3385 6.77693 11.3907C6.86262 11.3158 6.94863 11.2364 7.03478 11.1531C7.14645 11.2606 7.25795 11.3624 7.36885 11.4579C8.41903 12.3616 9.45626 12.7265 10.098 12.355C10.7608 11.9713 10.9762 10.8103 10.6965 9.39764C10.6752 9.28975 10.6503 9.17953 10.6224 9.06736C10.7006 9.04424 10.7773 9.02038 10.8522 8.99557C12.2688 8.52621 13.1905 7.76744 13.1905 6.9914C13.1905 6.24723 12.328 5.52757 10.9934 5.06813Z" fill="#53C1DE"/>
<path d="M10.6864 8.49448C10.6188 8.51685 10.5495 8.53847 10.4788 8.55943C10.3225 8.06434 10.1114 7.53789 9.8531 6.99396C10.0996 6.463 10.3025 5.94327 10.4545 5.45139C10.5809 5.48797 10.7036 5.52655 10.8218 5.56726C11.9653 5.96091 12.6628 6.54293 12.6628 6.99139C12.6628 7.46908 11.9095 8.0892 10.6864 8.49448ZM10.1789 9.50015C10.3025 10.1248 10.3202 10.6895 10.2383 11.131C10.1647 11.5277 10.0167 11.7922 9.83367 11.8982C9.44425 12.1236 8.61146 11.8306 7.71333 11.0577C7.61037 10.9691 7.50666 10.8745 7.40262 10.7744C7.75081 10.3936 8.09879 9.95088 8.43842 9.45922C9.03579 9.40621 9.60017 9.31955 10.112 9.20123C10.1372 9.30292 10.1596 9.40265 10.1789 9.50015ZM5.04649 11.8592C4.66601 11.9936 4.36298 11.9974 4.17981 11.8918C3.79003 11.667 3.62799 10.7992 3.84902 9.63511C3.87434 9.5018 3.90447 9.36486 3.9392 9.22488C4.4454 9.33681 5.00564 9.41736 5.60444 9.4659C5.94636 9.94701 6.3044 10.3892 6.66521 10.7764C6.58638 10.8525 6.50785 10.925 6.42977 10.9933C5.95034 11.4123 5.4699 11.7097 5.04649 11.8592ZM3.26401 8.49156C2.66147 8.28562 2.16387 8.01795 1.82279 7.72588C1.51631 7.46341 1.36157 7.20283 1.36157 6.99139C1.36157 6.54143 2.03241 5.96751 3.15124 5.57742C3.287 5.53009 3.42911 5.48548 3.57659 5.44358C3.73121 5.94657 3.93405 6.47246 4.17884 7.00424C3.93089 7.54391 3.72516 8.07818 3.56902 8.58706C3.46388 8.55684 3.36202 8.52503 3.26401 8.49156ZM3.86151 4.42441C3.62929 3.23759 3.78352 2.34229 4.17162 2.11763C4.58503 1.8783 5.49917 2.21954 6.46265 3.07504C6.52424 3.12972 6.58607 3.18695 6.64807 3.24617C6.28904 3.63168 5.93428 4.07057 5.5954 4.54884C5.01424 4.6027 4.45794 4.68923 3.94646 4.8051C3.9143 4.67575 3.88582 4.54866 3.86151 4.42441ZM9.19176 5.74058C9.06949 5.52939 8.94396 5.32318 8.816 5.12261C9.21026 5.17245 9.58801 5.23861 9.94275 5.31957C9.83625 5.6609 9.7035 6.01777 9.54725 6.38362C9.43516 6.17081 9.31661 5.95625 9.19176 5.74058ZM7.0181 3.62343C7.26159 3.88722 7.50543 4.18174 7.74526 4.50128C7.50358 4.48987 7.2589 4.48393 7.01221 4.48393C6.76784 4.48393 6.52497 4.48973 6.28478 4.50095C6.52486 4.18437 6.77081 3.89025 7.0181 3.62343ZM4.83051 5.74424C4.70837 5.95603 4.59202 6.16943 4.48169 6.38322C4.32797 6.01865 4.19646 5.66015 4.08903 5.31399C4.44159 5.23509 4.81756 5.17058 5.20932 5.12168C5.07955 5.3241 4.95298 5.53187 4.83051 5.74424ZM5.2206 8.89876C4.81584 8.8536 4.43423 8.79241 4.08175 8.71569C4.19089 8.36335 4.32531 7.99719 4.48229 7.62477C4.5929 7.83841 4.70972 8.05189 4.8326 8.26415C4.95778 8.48038 5.08749 8.6922 5.2206 8.89876ZM7.0327 10.3966C6.78251 10.1266 6.53295 9.82801 6.28922 9.50682C6.52582 9.5161 6.76705 9.52085 7.01221 9.52085C7.26407 9.52085 7.51306 9.51517 7.75813 9.50426C7.5175 9.83125 7.27454 10.1303 7.0327 10.3966ZM9.55229 7.60579C9.71745 7.98223 9.85668 8.34648 9.96723 8.69281C9.60895 8.77455 9.22212 8.84038 8.81454 8.8893C8.94282 8.68602 9.06945 8.47627 9.19387 8.26052C9.31975 8.04224 9.43928 7.82363 9.55229 7.60579ZM8.73661 7.9968C8.54345 8.33172 8.34514 8.65144 8.14382 8.95324C7.77714 8.97946 7.39831 8.99296 7.01221 8.99296C6.62766 8.99296 6.25361 8.98102 5.89341 8.95764C5.68398 8.65188 5.48136 8.33121 5.28942 7.99968C5.098 7.66904 4.92186 7.33562 4.76222 7.00406C4.92182 6.67173 5.09754 6.33793 5.28786 6.00789L5.28782 6.00796C5.47865 5.67704 5.67949 5.35793 5.88699 5.05409C6.25449 5.02631 6.63134 5.01181 7.01218 5.01181C7.39475 5.01181 7.7721 5.02642 8.13949 5.05444C8.34382 5.35606 8.5433 5.67414 8.73488 6.0051C8.92863 6.33978 9.10662 6.67136 9.26758 6.99656C9.1071 7.32735 8.92951 7.66227 8.73661 7.9968ZM9.82558 2.10193C10.2394 2.34055 10.4003 3.30294 10.1403 4.56491C10.1237 4.64544 10.1051 4.72746 10.0848 4.81058C9.57211 4.69229 9.0154 4.60426 8.43255 4.54958C8.09301 4.06606 7.74115 3.62649 7.38797 3.24592C7.48293 3.15458 7.57775 3.06748 7.67217 2.98528C8.58445 2.19136 9.4371 1.8779 9.82558 2.10193Z" fill="white"/>
<path d="M7.01213 5.88794C7.62153 5.88794 8.11557 6.38195 8.11557 6.99138C8.11557 7.60078 7.62153 8.09481 7.01213 8.09481C6.40273 8.09481 5.90869 7.60078 5.90869 6.99138C5.90869 6.38195 6.40273 5.88794 7.01213 5.88794Z" fill="#53C1DE"/>
</g>
<defs>
<clipPath id="clip0_73_151">
<rect width="14" height="12.5781" fill="white" transform="translate(0 0.710938)"/>
</clipPath>
</defs>
</svg>
